<?xml version="1.0" encoding="UTF-8" standalone="no"?>
<!-- Svg Vector Icons : http://www.onlinewebfonts.com/icon -->

<svg
   version="1.1"
   x="0px"
   y="0px"
   viewBox="0 0 614.14667 360.96902"
   enable-background="new 0 0 1000 1000"
   xml:space="preserve"
   id="svg59"
   sodipodi:docname="logo.svg"
   width="614.14667"
   height="360.96902"
   inkscape:version="1.1.2 (76b9e6a115, 2022-02-25)"
   xmlns:inkscape="http://www.inkscape.org/namespaces/inkscape"
   xmlns:sodipodi="http://sodipodi.sourceforge.net/DTD/sodipodi-0.dtd"
   xmlns="http://www.w3.org/2000/svg"
   xmlns:svg="http://www.w3.org/2000/svg"><defs
   id="defs63" /><sodipodi:namedview
   id="namedview61"
   pagecolor="#ffffff"
   bordercolor="#666666"
   borderopacity="1.0"
   inkscape:pageshadow="2"
   inkscape:pageopacity="0.0"
   inkscape:pagecheckerboard="0"
   showgrid="false"
   inkscape:zoom="0.812"
   inkscape:cx="83.743842"
   inkscape:cy="108.99015"
   inkscape:window-width="1853"
   inkscape:window-height="1025"
   inkscape:window-x="1667"
   inkscape:window-y="27"
   inkscape:window-maximized="1"
   inkscape:current-layer="svg59" />
<metadata
   id="metadata53"> Svg Vector Icons : http://www.onlinewebfonts.com/icon </metadata>
<g
   id="g57"
   transform="matrix(0.03540082,0.13211767,-0.13211767,0.03540082,188.8822,16.433483)"
   style="stroke-width:7.3111"><path
     d="M 843.5,23.4 C 762.7,23.4 697,89.1 697,169.8 c 0,4.1 0.2,8.2 0.5,12.2 L 238.1,393.6 C 214.8,377.9 186.7,368.7 156.5,368.7 75.7,368.8 10,434.5 10,515.2 c 0,80.7 65.7,146.5 146.5,146.5 34.9,0 67,-12.3 92.2,-32.8 l 238.8,158.2 c -4.2,13.6 -6.4,28 -6.4,43 0,80.8 65.7,146.5 146.5,146.5 80.8,0 146.5,-65.7 146.5,-146.5 0,-80.8 -65.7,-146.5 -146.5,-146.5 -44.8,0 -84.9,20.2 -111.8,52 L 286.1,583.4 C 296.9,563 303,539.8 303,515.2 303,487 295,460.7 281.1,438.3 L 714.3,238.8 c 24.7,46.1 73.4,77.5 129.2,77.5 C 924.3,316.3 990,250.6 990,169.8 990,89 924.3,23.4 843.5,23.4 Z M 627.6,742.3 c 48.5,0 87.9,39.4 87.9,87.9 0,48.5 -39.4,87.9 -87.9,87.9 -48.5,0 -87.9,-39.4 -87.9,-87.9 0,-48.5 39.4,-87.9 87.9,-87.9 z M 156.5,603.1 c -48.5,0 -87.9,-39.4 -87.9,-87.9 0,-48.5 39.4,-87.9 87.9,-87.9 48.5,0 87.9,39.4 87.9,87.9 0,48.5 -39.4,87.9 -87.9,87.9 z m 687,-345.4 c -48.5,0 -87.9,-39.4 -87.9,-87.9 0,-48.5 39.4,-87.8 87.9,-87.8 48.5,0 87.9,39.4 87.9,87.9 0,48.5 -39.4,87.8 -87.9,87.8 z"
     id="path55"
     style="stroke-width:7.3111" /></g>
<g
   id="g187"
   transform="matrix(0.07099912,0,0,0.10627781,33.922924,182.24373)"
   style="stroke-width:11.512"><g
     id="g155"
     style="stroke-width:11.512"><path
       d="m 500,10 c 222.5,0 410.5,85.4 410.5,186.6 0,101.1 -188,186.6 -410.5,186.6 C 277.5,383.2 89.5,297.8 89.5,196.6 89.5,95.4 277.5,10 500,10 Z"
       id="path147"
       style="stroke-width:11.512" /><path
       d="M 910.5,803.4 C 910.5,904.5 722.5,990 500,990 277.5,990 89.5,904.6 89.5,803.4 V 683.2 c 64.5,80.4 221.9,135.9 410.5,135.9 188.6,0 346,-55.5 410.5,-135.9 z"
       id="path149"
       style="stroke-width:11.512" /><path
       d="M 910.5,601.1 C 910.5,702.2 722.5,787.7 500,787.7 277.5,787.7 89.5,702.3 89.5,601.1 V 481 C 154,561.4 311.4,616.8 500,616.8 688.6,616.8 846,561.4 910.5,481 Z"
       id="path151"
       style="stroke-width:11.512" /><path
       d="M 910.5,398.9 C 910.5,500 722.5,585.5 500,585.5 277.5,585.5 89.5,500.1 89.5,398.9 V 278.7 c 64.5,80.4 221.9,135.9 410.5,135.9 188.6,0 346,-55.5 410.5,-135.9 z"
       id="path153"
       style="stroke-width:11.512" /></g><g
     id="g157"
     style="stroke-width:11.512" /><g
     id="g159"
     style="stroke-width:11.512" /><g
     id="g161"
     style="stroke-width:11.512" /><g
     id="g163"
     style="stroke-width:11.512" /><g
     id="g165"
     style="stroke-width:11.512" /><g
     id="g167"
     style="stroke-width:11.512" /><g
     id="g169"
     style="stroke-width:11.512" /><g
     id="g171"
     style="stroke-width:11.512" /><g
     id="g173"
     style="stroke-width:11.512" /><g
     id="g175"
     style="stroke-width:11.512" /><g
     id="g177"
     style="stroke-width:11.512" /><g
     id="g179"
     style="stroke-width:11.512" /><g
     id="g181"
     style="stroke-width:11.512" /><g
     id="g183"
     style="stroke-width:11.512" /><g
     id="g185"
     style="stroke-width:11.512" /></g><g
   transform="matrix(0.00694556,0,0,-0.00694556,391.7345,120.66049)"
   id="g222"
   style="stroke-width:374.341;stroke-miterlimit:4;stroke-dasharray:none"><path
     d="M 4533,4988.4 C 3992.2,4938.1 3362.9,4758.7 2860.3,4514.6 847.9,3535.9 -252.9,1305.7 201.8,-879.1 599,-2795.8 2106.6,-4301 4020.9,-4691 c 2189.5,-445.1 4405.4,648.5 5384.1,2658.5 373.3,768.1 548,1667.9 481,2488.6 -52.6,648.5 -213,1241.9 -481,1794.7 -895,1835.4 -2838,2926.6 -4872,2737.6 z m 921.3,-308.7 c 1390.3,-146 2627.4,-895 3388.4,-2060.3 801.6,-1220.4 969.1,-2780.6 449.9,-4144.5 -564.8,-1476.4 -1864.1,-2570 -3419.5,-2873.9 -1632,-318.3 -3314.2,277.6 -4386.2,1553 -1438.2,1710.9 -1438.2,4194.8 0,5910.5 966.6,1155.7 2476.6,1768.3 3967.4,1615.2 z"
     id="path218"
     style="stroke-width:374.341;stroke-miterlimit:4;stroke-dasharray:none" /><path
     d="m 4779.4,4323.1 -79,-69.4 v -2156 -2156 l 67,-64.6 64.6,-67 h 1545.8 1545.8 l 69.4,79 c 59.8,67 69.4,95.7 69.4,220.1 0,124.4 -9.6,153.1 -69.4,220.2 l -69.4,79 -1306.5,7.2 -1306.5,4.8 -4.8,1916.7 -7.2,1916.7 -79,69.4 c -67,59.8 -95.7,69.4 -220.1,69.4 -124.3,-0.1 -153,-9.6 -220.1,-69.5 z"
     id="path220"
     style="stroke-width:374.341;stroke-miterlimit:4;stroke-dasharray:none" /></g><rect
   style="fill:none;stroke:#020000;stroke-width:3.2;stroke-linecap:round;stroke-linejoin:round;stroke-miterlimit:4;stroke-dasharray:none"
   id="rect1075"
   width="567.25293"
   height="286.31186"
   x="26.23634"
   y="22.900829" /><text
   xml:space="preserve"
   style="font-size:14.6667px;line-height:1.25;font-family:sans-serif"
   x="84.968079"
   y="190.5034"
   id="text1577"><tspan
     sodipodi:role="line"
     id="tspan1575"
     x="84.968079"
     y="190.5034" /></text><text
   xml:space="preserve"
   style="font-size:85.3333px;line-height:1.25;font-family:sans-serif"
   x="231.17404"
   y="136.1765"
   id="text8393"><tspan
     sodipodi:role="line"
     id="tspan8391"
     x="231.17404"
     y="136.1765">ge</tspan></text><text
   xml:space="preserve"
   style="font-size:85.3333px;line-height:1.25;font-family:sans-serif"
   x="472.01782"
   y="153.9265"
   id="text8393-3"><tspan
     sodipodi:role="line"
     id="tspan8391-6"
     x="472.01782"
     y="153.9265">f</tspan></text><text
   xml:space="preserve"
   style="font-size:14.6667px;line-height:1.25;font-family:sans-serif"
   x="353.77112"
   y="-41.285603"
   id="text12441"><tspan
     sodipodi:role="line"
     id="tspan12439"
     x="353.77112"
     y="-41.285603"></tspan></text><text
   xml:space="preserve"
   style="font-size:85.3333px;line-height:1.25;font-family:sans-serif"
   x="111.10251"
   y="280.2504"
   id="text8393-7"><tspan
     sodipodi:role="line"
     id="tspan8391-5"
     x="111.10251"
     y="280.2504">nformation</tspan></text><text
   xml:space="preserve"
   style="font-style:normal;font-variant:normal;font-weight:normal;font-stretch:normal;font-size:26.6667px;line-height:1.25;font-family:sans-serif;-inkscape-font-specification:sans-serif"
   x="413.20734"
   y="342.12662"
   id="text17973"><tspan
     sodipodi:role="line"
     id="tspan17971"
     x="413.20734"
     y="342.12662">SIMULADOR</tspan></text><rect
   style="fill:none;stroke:#020000;stroke-width:2.6;stroke-linecap:round;stroke-linejoin:round;stroke-miterlimit:4;stroke-dasharray:none"
   id="rect27239"
   width="611.54669"
   height="358.36902"
   x="1.3"
   y="1.3" /></svg>
